<svg xmlns="http://www.w3.org/2000/svg" width="15px" height="17px" viewBox="0 0 15 17" version="1.1"><g><path style=" stroke:none;fill-rule:nonzero;fill:#fff;fill-opacity:1;" d="M 7.5 8.5 C 9.867188 8.5 11.785156 6.597656 11.785156 4.25 C 11.785156 1.902344 9.867188 0 7.5 0 C 5.132812 0 3.214844 1.902344 3.214844 4.25 C 3.214844 6.597656 5.132812 8.5 7.5 8.5 Z M 9.199219 10.09375 L 5.800781 10.09375 C 2.597656 10.09375 0 12.671875 0 15.847656 C 0 16.484375 0.519531 17 1.160156 17 L 13.839844 17 C 14.480469 17 15 16.484375 15 15.847656 C 15 12.671875 12.402344 10.09375 9.199219 10.09375 Z M 9.199219 10.09375 "/></g></svg>
